<svg xmlns="http://www.w3.org/2000/svg" xmlns:xlink="http://www.w3.org/1999/xlink" width="48" height="48" viewBox="0 0 48 48">
  <defs>
    <clipPath id="clip-path">
      <rect id="Rectangle_8294" data-name="Rectangle 8294" width="48" height="48" fill="#edf6f5"/>
    </clipPath>
    <clipPath id="clip-path-3">
      <path id="Path_69201" data-name="Path 69201" d="M17.832.579A21.2,21.2,0,0,0,7,6.584a24.2,24.2,0,0,0-7,17.008Q0,23.88,0,24.166v.1a23.319,23.319,0,0,0,7,16.8A21.694,21.694,0,0,0,23,48h.1q.371,0,.746-.013a24.133,24.133,0,0,0,17-7.7q7.135-7.3,7.151-16.124v-.08q0-.247-.006-.5A22.911,22.911,0,0,0,41.15,7.66,25.171,25.171,0,0,0,30.394,1.119,24.3,24.3,0,0,0,17.832.579" transform="translate(0 0)" fill="none"/>
    </clipPath>
    <clipPath id="clip-path-4">
      <rect id="Rectangle_8295" data-name="Rectangle 8295" width="35.44" height="9.981" fill="#01a8c1"/>
    </clipPath>
  </defs>
  <g id="Group_54582" data-name="Group 54582" transform="translate(-208 -2135)">
    <g id="Group_54571" data-name="Group 54571" transform="translate(208 2135)">
      <g id="Group_54575" data-name="Group 54575">
        <g id="Group_54574" data-name="Group 54574" clip-path="url(#clip-path)">
          <g id="Group_54573" data-name="Group 54573" opacity="0.7">
            <g id="Group_54572" data-name="Group 54572">
              <g id="Group_54571-2" data-name="Group 54571" clip-path="url(#clip-path)">
                <path id="Path_69183" data-name="Path 69183" d="M.007,23.592A24.2,24.2,0,0,1,7,6.584a21.193,21.193,0,0,1,10.83-6,24.3,24.3,0,0,1,12.562.54A25.176,25.176,0,0,1,41.15,7.66a22.911,22.911,0,0,1,6.844,15.93q.222,9.159-7.145,16.7a24.133,24.133,0,0,1-17,7.7A21.716,21.716,0,0,1,7,41.062,23.347,23.347,0,0,1,.007,23.592" transform="translate(0 0)" fill="#edf6f5"/>
              </g>
            </g>
          </g>
        </g>
      </g>
      <g id="Group_54580" data-name="Group 54580">
        <g id="Group_54579" data-name="Group 54579" clip-path="url(#clip-path-3)">
          <path id="Path_69184" data-name="Path 69184" d="M46.721,112.99c-1.6-1.29-.115-8.68-.115-8.68H37.511s1.49,7.39-.115,8.68S23.64,114.163,24.786,126.6H59.331c1.146-12.433-11.005-12.316-12.61-13.606" transform="translate(-18.787 -78.726)" fill="#f89b6a"/>
          <path id="Path_69185" data-name="Path 69185" d="M86.855,112.251c-.794-2.275.349-7.942.349-7.942H78.109a34.721,34.721,0,0,1,.629,5.57,13.5,13.5,0,0,0,8.118,2.372" transform="translate(-59.385 -78.725)" fill="#ef8050"/>
          <path id="Path_69186" data-name="Path 69186" d="M46.831,134.632l-.041-1.614-10.822-.255-.009,1.542c-15.235,2.071-12.4,13.765-12.4,13.765l17.4.116h.136l17.4-.116s2.722-10.082-11.659-13.438" transform="translate(-17.751 -100.201)" fill="#00cdec"/>
          <g id="Group_54577" data-name="Group 54577" transform="translate(5.552 37.889)">
            <g id="Group_54576" data-name="Group 54576" clip-path="url(#clip-path-4)">
              <path id="Path_69187" data-name="Path 69187" d="M48,161.837c-5.405-.69-11.154-1.668-16.142-4-1.783-.835-3.555-1.889-5.362-2.874a10.241,10.241,0,0,0-3.085,9.863l17.4.116h.137l17.4-.116a9.548,9.548,0,0,0,.253-2.192c-3.54-.11-7.074-.343-10.6-.792" transform="translate(-23.159 -154.958)" fill="#01a8c1"/>
            </g>
          </g>
          <path id="Path_69188" data-name="Path 69188" d="M56.383,78.73c.428,1.6,1.632,3.021,2.578,2.757s1.277-2.114.85-3.715-1.452-2.348-2.4-2.084-1.457,1.441-1.029,3.042" transform="translate(-42.751 -57.085)" fill="#ef8050"/>
          <path id="Path_69189" data-name="Path 69189" d="M125.835,78.73c-.428,1.6-1.632,3.021-2.578,2.757s-1.277-2.114-.85-3.715,1.452-2.348,2.4-2.084,1.457,1.441,1.029,3.042" transform="translate(-92.924 -57.085)" fill="#ef8050"/>
          <path id="Path_69190" data-name="Path 69190" d="M64.332,47.675c0,5.862,3.541,11.847,7.91,11.847s7.91-5.984,7.91-11.847-3.541-9.384-7.91-9.384-7.91,3.521-7.91,9.384" transform="translate(-48.91 -28.899)" fill="#f89b6a"/>
          <path id="Path_69193" data-name="Path 69193" d="M57.516,81.23a2.569,2.569,0,0,1-.02-.634,1.514,1.514,0,0,1,.061-.328.672.672,0,0,1,.215-.34.41.41,0,0,1,.259-.077.546.546,0,0,1,.229.068.668.668,0,0,1,.1.062.584.584,0,0,1,.065.052,1.011,1.011,0,0,1,.077.082l.057.075a2.492,2.492,0,0,1,.293.61c.068.206.121.412.168.618s.073.414.1.621.041.415.057.623.013.415.014.626v.129l-.084.042a1,1,0,0,0-.128.079.908.908,0,0,0-.115.1.274.274,0,0,0-.1.2.4.4,0,0,0,.179.219,2.166,2.166,0,0,0,.306.172,1.468,1.468,0,0,1-.358-.062.512.512,0,0,1-.328-.254.4.4,0,0,1-.021-.255.647.647,0,0,1,.093-.208,1.192,1.192,0,0,1,.128-.162,1.309,1.309,0,0,1,.151-.14l-.084.17-.105-.6-.108-.6c-.034-.2-.072-.4-.116-.589s-.082-.388-.136-.573a2.566,2.566,0,0,0-.189-.513l-.03-.05a.219.219,0,0,1-.021-.035.374.374,0,0,0-.046-.052c.006,0-.02-.018-.028-.027-.056-.038-.053-.042-.079-.04s-.1.072-.139.147a2.267,2.267,0,0,0-.122.258c-.07.185-.133.381-.191.583" transform="translate(-43.705 -60.265)" fill="#e59661"/>
          <path id="Path_69194" data-name="Path 69194" d="M131.22,81.23c-.058-.2-.12-.4-.191-.583a2.262,2.262,0,0,0-.122-.258c-.044-.075-.1-.14-.139-.147s-.023,0-.079.04c-.008.009-.033.027-.028.027a.376.376,0,0,0-.046.052.216.216,0,0,1-.021.035l-.03.05a2.564,2.564,0,0,0-.189.513c-.054.185-.1.378-.136.573s-.082.391-.116.589l-.108.6-.105.6-.125-.19a.775.775,0,0,1,.1.05.968.968,0,0,1,.085.058.66.66,0,0,1,.151.16.421.421,0,0,1,.072.237.439.439,0,0,1-.066.219.814.814,0,0,1-.265.257,1.811,1.811,0,0,1-.3.155,3.274,3.274,0,0,0,.224-.247.821.821,0,0,0,.15-.259.158.158,0,0,0-.045-.177.369.369,0,0,0-.095-.061.57.57,0,0,0-.059-.024.314.314,0,0,0-.056-.015l-.126-.009v-.181c0-.211,0-.418.014-.626s.029-.416.057-.623.062-.414.1-.621.1-.412.168-.618a2.491,2.491,0,0,1,.293-.61l.057-.075a1.012,1.012,0,0,1,.077-.082.585.585,0,0,1,.065-.052.667.667,0,0,1,.1-.062.546.546,0,0,1,.229-.068.41.41,0,0,1,.259.077.671.671,0,0,1,.215.34,1.53,1.53,0,0,1,.062.328,2.582,2.582,0,0,1-.021.634" transform="translate(-98.493 -60.265)" fill="#ef8050"/>
        </g>
      </g>
      <rect id="Rectangle_8296" data-name="Rectangle 8296" width="48" height="48" fill="none"/>
      <path id="Path_69203" data-name="Path 69203" d="M56.691,37.23q-.06,1.211-.158,2.429-.017.211-.05.418s0,.009,0,.014A10.113,10.113,0,0,1,52.526,46a9.727,9.727,0,0,1-1.046.718,6.153,6.153,0,0,1-2.877.931,5.1,5.1,0,0,1-2.287-.437,9.757,9.757,0,0,1-3.665-3.039,8.6,8.6,0,0,1-1.816-4.5c-.063-.816-.126-1.63-.188-2.446a7.041,7.041,0,0,1,7.184-7.306q.722.024,1.443.052C53.378,30.35,56.675,33.343,56.691,37.23Z" transform="translate(-24.998 -15.985)" fill="#ef8050"/>
      <path id="Path_69204" data-name="Path 69204" d="M58.064,37.156q-.052,1.211-.135,2.429c-.01.141-.025.28-.042.419,0,0,0,.009,0,.014a10.31,10.31,0,0,1-3.382,5.9,8.307,8.307,0,0,1-.894.716,4.742,4.742,0,0,1-2.462.922,3.852,3.852,0,0,1-1.956-.44,8.676,8.676,0,0,1-3.125-3.027,9.455,9.455,0,0,1-1.538-4.5q-.08-1.224-.162-2.447c-.266-3.8,2.461-7.261,6.114-7.294l1.235.049A7.192,7.192,0,0,1,58.064,37.156Z" transform="translate(-27.181 -15.946)" fill="#f89b6a"/>
    </g>
    <path id="Path_69202" data-name="Path 69202" d="M41.4,24.667c.8-.024.91.934,2.093,1.357,1.74.622,3.935-.28,5.124-1.121.8-.569.846-.96,1.319-.981,1.507-.066,2.74,3.562,2.88,3.983a11.46,11.46,0,0,1,.528,4.511,22.219,22.219,0,0,0,.967-2.681c.824-2.844,1.538-5.3.441-7.371a6.354,6.354,0,0,0-4.114-2.95,5.1,5.1,0,0,0-1.651-1.8,5.471,5.471,0,0,0-.586-.326c-1.336-.625-9.161-.521-11.408,4.474-1.572,3.5.349,7.7,1.232,9.627.1.217.186.394.245.51A10.29,10.29,0,0,1,39.595,26.5C39.993,25.751,40.56,24.693,41.4,24.667Z" transform="translate(185.486 2125.975)" fill="#2a1d1e"/>
  </g>
</svg>
